<svg width="1024" height="1024" viewBox="0 0 1024 1024" fill="none" xmlns="http://www.w3.org/2000/svg">
<g clip-path="url(#clip0)">
<rect width="1024" height="1024" fill="white"/>
<path d="M656.814 237.784C746.755 215.678 794.192 207.066 872.023 212.386L811.965 308.168C750.355 304.954 702.152 313.202 656.904 331.046C611.538 348.936 569.182 376.459 519.311 411.643L520.112 413.434C609.637 392.816 670.095 394.214 760.388 411.173L710.683 510.569C647.615 500.546 593.129 500.591 537.678 514.562C482.026 528.585 425.47 556.618 358.336 602.466L359.001 604.287C477.878 592.199 558.493 585.649 658.834 613.449C601.292 679.586 539.447 713.801 476.147 726.898C412.448 740.078 347.19 731.889 283.243 713.187L282.661 713.017L282.241 713.455C210.836 787.889 172.824 840.078 99.9929 966.486L4.14841 1015.88C4.2506 1015.55 4.36428 1015.19 4.48952 1014.79C5.18296 1012.57 6.23106 1009.27 7.64838 1004.95C10.483 996.322 14.7946 983.631 20.6997 967.4C32.51 934.938 50.6942 888.313 76.1853 831.676C127.168 718.402 207.376 565.091 324.27 404.95L323.544 404.42L324.27 404.95C476.52 196.329 649.23 96.7235 783.85 49.2649C851.164 25.534 908.961 14.8397 949.92 10.0778C970.399 7.69683 986.669 6.79907 997.813 6.49629C1003.38 6.3449 1007.68 6.34226 1010.57 6.37733C1010.86 6.38086 1011.14 6.38477 1011.4 6.38895C1001.91 12.1722 991.942 21.496 982.242 32.3513C971.454 44.4233 960.939 58.4591 951.719 71.797C942.496 85.1375 934.559 97.7945 928.928 107.116C926.112 111.777 923.872 115.605 922.335 118.268C921.567 119.6 920.975 120.641 920.574 121.349C920.437 121.591 920.323 121.794 920.231 121.956C811.946 128.63 737.429 162.151 655.903 236.072L656.814 237.784Z" fill="#009688" stroke="white" stroke-width="2"/>
<g clip-path="url(#clip1)">
<mask id="path-7-inside-1" fill="white">
<path d="M10.7237 566.265C14.8392 597.739 30.2632 626.642 54.1188 647.581C77.9744 668.52 108.632 680.067 140.374 680.067C172.116 680.067 202.774 668.52 226.63 647.581C250.486 626.642 265.91 597.739 270.025 566.265H10.7237ZM717.185 829.495C717.193 832.156 716.677 834.793 715.665 837.254C714.654 839.715 713.167 841.953 711.29 843.839C709.413 845.725 707.183 847.223 704.727 848.247C702.271 849.271 699.637 849.801 696.976 849.806H319.192C308.095 849.806 298.942 840.693 298.942 829.495C298.969 824.146 301.115 819.025 304.911 815.256C308.707 811.487 313.843 809.376 319.192 809.387H696.956C708.134 809.387 717.185 818.378 717.185 829.495ZM301.149 860.154H714.999V918.615H301.149V860.154ZM751.975 566.265C756.062 597.76 771.473 626.691 795.329 647.656C819.185 668.62 849.856 680.186 881.615 680.192C913.37 680.192 944.038 668.628 967.886 647.661C991.734 626.694 1007.13 597.759 1011.2 566.265H751.975ZM1004.07 525.583L897.896 379.338H954.657C968.468 379.338 979.585 368.018 979.585 354.025C979.585 340.154 968.448 328.956 954.657 328.956H653.985C645.06 304.37 629.816 282.57 609.788 265.748C589.76 248.927 565.654 237.677 539.897 233.133V154.218C539.897 140.185 528.638 128.987 514.685 128.987L512.336 129.25L509.988 128.987C506.675 128.979 503.393 129.626 500.331 130.892C497.27 132.158 494.489 134.017 492.15 136.363C489.81 138.708 487.957 141.493 486.699 144.558C485.44 147.622 484.801 150.906 484.817 154.218V233.092C459.063 237.634 434.961 248.882 414.939 265.705C394.917 282.527 379.682 304.33 370.769 328.915H70.036C56.3267 328.915 45.1488 340.113 45.1488 353.985C45.1488 367.998 56.3267 379.297 70.036 379.297H124.205L18.0137 525.543H4.75V552.556H276.059V525.543H262.735L156.585 379.338H403.007C403.007 373.627 403.634 368.018 404.485 362.652C405.356 360.12 405.943 357.549 405.943 354.896C410.508 335.657 420.283 318.048 434.196 303.999C448.109 289.95 465.623 280.004 484.817 275.253V552.617H483.764C481.597 656.945 431.964 747.928 358.335 799.059H666.419C592.769 747.928 543.177 656.945 540.889 552.617H539.917V275.253C559.108 280.005 576.618 289.951 590.528 304.001C604.438 318.05 614.21 335.659 618.771 354.896C618.852 357.549 619.398 360.12 620.289 362.652C621.099 368.038 621.605 373.627 621.605 379.338H865.456L759.265 525.583H746.021V552.597H1017.25V525.583H1004.07V525.583ZM129.591 525.583H44.845L129.591 408.842V525.583ZM151.279 525.583V408.842L236.025 525.583H151.279V525.583ZM870.802 525.583H786.015L870.802 408.842V525.583ZM892.388 525.583V408.842L977.236 525.583H892.388ZM165.555 293.761C165.369 300.311 162.637 306.529 157.939 311.096C153.241 315.663 146.947 318.218 140.395 318.218C133.843 318.218 127.549 315.663 122.85 311.096C118.152 306.529 115.42 300.311 115.234 293.761C115.234 279.87 126.534 268.53 140.445 268.53C154.296 268.509 165.555 279.87 165.555 293.761ZM906.786 292.425C906.786 306.417 895.527 317.514 881.636 317.514C878.332 317.536 875.057 316.902 872 315.649C868.943 314.397 866.164 312.551 863.825 310.217C861.486 307.884 859.633 305.11 858.374 302.056C857.114 299.002 856.472 295.728 856.485 292.425C856.349 289.037 856.899 285.657 858.102 282.487C859.304 279.317 861.135 276.422 863.484 273.977C865.833 271.532 868.651 269.587 871.771 268.258C874.89 266.929 878.245 266.244 881.636 266.244C885.026 266.244 888.382 266.929 891.501 268.258C894.62 269.587 897.439 271.532 899.788 273.977C902.136 276.422 903.967 279.317 905.17 282.487C906.372 285.657 906.922 289.037 906.786 292.425V292.425Z"/>
</mask>
<path d="M10.7237 566.265C14.8392 597.739 30.2632 626.642 54.1188 647.581C77.9744 668.52 108.632 680.067 140.374 680.067C172.116 680.067 202.774 668.52 226.63 647.581C250.486 626.642 265.91 597.739 270.025 566.265H10.7237ZM717.185 829.495C717.193 832.156 716.677 834.793 715.665 837.254C714.654 839.715 713.167 841.953 711.29 843.839C709.413 845.725 707.183 847.223 704.727 848.247C702.271 849.271 699.637 849.801 696.976 849.806H319.192C308.095 849.806 298.942 840.693 298.942 829.495C298.969 824.146 301.115 819.025 304.911 815.256C308.707 811.487 313.843 809.376 319.192 809.387H696.956C708.134 809.387 717.185 818.378 717.185 829.495ZM301.149 860.154H714.999V918.615H301.149V860.154ZM751.975 566.265C756.062 597.76 771.473 626.691 795.329 647.656C819.185 668.62 849.856 680.186 881.615 680.192C913.37 680.192 944.038 668.628 967.886 647.661C991.734 626.694 1007.13 597.759 1011.2 566.265H751.975ZM1004.07 525.583L897.896 379.338H954.657C968.468 379.338 979.585 368.018 979.585 354.025C979.585 340.154 968.448 328.956 954.657 328.956H653.985C645.06 304.37 629.816 282.57 609.788 265.748C589.76 248.927 565.654 237.677 539.897 233.133V154.218C539.897 140.185 528.638 128.987 514.685 128.987L512.336 129.25L509.988 128.987C506.675 128.979 503.393 129.626 500.331 130.892C497.27 132.158 494.489 134.017 492.15 136.363C489.81 138.708 487.957 141.493 486.699 144.558C485.44 147.622 484.801 150.906 484.817 154.218V233.092C459.063 237.634 434.961 248.882 414.939 265.705C394.917 282.527 379.682 304.33 370.769 328.915H70.036C56.3267 328.915 45.1488 340.113 45.1488 353.985C45.1488 367.998 56.3267 379.297 70.036 379.297H124.205L18.0137 525.543H4.75V552.556H276.059V525.543H262.735L156.585 379.338H403.007C403.007 373.627 403.634 368.018 404.485 362.652C405.356 360.12 405.943 357.549 405.943 354.896C410.508 335.657 420.283 318.048 434.196 303.999C448.109 289.95 465.623 280.004 484.817 275.253V552.617H483.764C481.597 656.945 431.964 747.928 358.335 799.059H666.419C592.769 747.928 543.177 656.945 540.889 552.617H539.917V275.253C559.108 280.005 576.618 289.951 590.528 304.001C604.438 318.05 614.21 335.659 618.771 354.896C618.852 357.549 619.398 360.12 620.289 362.652C621.099 368.038 621.605 373.627 621.605 379.338H865.456L759.265 525.583H746.021V552.597H1017.25V525.583H1004.07V525.583ZM129.591 525.583H44.845L129.591 408.842V525.583ZM151.279 525.583V408.842L236.025 525.583H151.279V525.583ZM870.802 525.583H786.015L870.802 408.842V525.583ZM892.388 525.583V408.842L977.236 525.583H892.388ZM165.555 293.761C165.369 300.311 162.637 306.529 157.939 311.096C153.241 315.663 146.947 318.218 140.395 318.218C133.843 318.218 127.549 315.663 122.85 311.096C118.152 306.529 115.42 300.311 115.234 293.761C115.234 279.87 126.534 268.53 140.445 268.53C154.296 268.509 165.555 279.87 165.555 293.761ZM906.786 292.425C906.786 306.417 895.527 317.514 881.636 317.514C878.332 317.536 875.057 316.902 872 315.649C868.943 314.397 866.164 312.551 863.825 310.217C861.486 307.884 859.633 305.11 858.374 302.056C857.114 299.002 856.472 295.728 856.485 292.425C856.349 289.037 856.899 285.657 858.102 282.487C859.304 279.317 861.135 276.422 863.484 273.977C865.833 271.532 868.651 269.587 871.771 268.258C874.89 266.929 878.245 266.244 881.636 266.244C885.026 266.244 888.382 266.929 891.501 268.258C894.62 269.587 897.439 271.532 899.788 273.977C902.136 276.422 903.967 279.317 905.17 282.487C906.372 285.657 906.922 289.037 906.786 292.425V292.425Z" fill="#795548" stroke="white" stroke-width="4" mask="url(#path-7-inside-1)"/>
</g>
</g>
<defs>
<clipPath id="clip0">
<rect width="1024" height="1024" fill="white"/>
</clipPath>
<clipPath id="clip1">
<rect x="4.75" y="7.75" width="1012.5" height="1012.5" fill="white"/>
</clipPath>
</defs>
</svg>
